<svg width="166" height="44" viewBox="0 0 166 44" fill="none" xmlns="http://www.w3.org/2000/svg">
<g clip-path="url(#clip0_3193_6705)">
<path d="M20.0048 11.6054L19.4188 12.8329L12.7654 26.8319L0 0L14.4845 0L20.0048 11.6054Z" fill="#434343"/>
<path d="M41.8642 0L29.0989 26.8319L22.4455 12.8329L21.8594 11.6054L27.3797 0L41.8642 0Z" fill="#8C0000"/>
<path d="M28.1704 28.7812L20.9309 44.0021L13.6914 28.7812L20.9309 13.5547L28.1704 28.7812Z" fill="#737373"/>
<path d="M68.879 11.4492L59.7808 32.1827H56.8448L47.7188 11.4492H50.9171L58.3854 28.4835L65.9095 11.4492H68.8734H68.879Z" fill="#414141"/>
<path d="M74.751 29.6049V22.9151H85.1497V20.3932H74.751L71.7871 22.9151V32.1827H86.841V29.6049H74.751ZM86.4279 14.027V11.4492H71.7871V20.3932H74.751V14.027H86.4279Z" fill="#414141"/>
<path d="M104.517 32.1827L100.041 25.8165C99.6277 25.8443 99.1812 25.8778 98.7402 25.8778H93.6162V32.1882H90.6523V11.4492H98.7402C104.132 11.4492 107.392 14.172 107.392 18.6747C107.392 21.8717 105.734 24.1817 102.832 25.2194L107.749 32.1771H104.517V32.1827ZM104.428 18.6747C104.428 15.712 102.441 14.027 98.6509 14.027H93.6162V23.3559H98.6509C102.446 23.3559 104.428 21.6374 104.428 18.6747Z" fill="#414141"/>
<path d="M116.24 14.027H109.129V11.4492H126.287V14.027H119.176V32.1827H116.24V14.027Z" fill="#414141"/>
<path d="M129.4 11.4492V20.3932H132.364V14.027H144.041V11.4492H129.4ZM132.364 29.6049V22.9151H142.769V20.3932H132.364L129.4 22.9151V32.1827H144.454V29.6049H132.364Z" fill="#414141"/>
<path d="M158.392 21.792L156.996 23.7448L156.729 24.1186L162.589 32.181H166L158.392 21.7864V21.792ZM158.437 21.0666L165.464 11.4531H162.232L156.857 18.9018L157.119 19.2589L158.437 21.0666Z" fill="#8C0000"/>
<path d="M157.945 21.4254L156.365 23.6293L150.231 32.1827H146.82L154.618 21.5537L147.3 11.4492H150.672L156.488 19.4168L157.945 21.4254Z" fill="#414141"/>
</g>
<defs>
<clipPath id="clip0_3193_6705">
<rect width="166" height="44" fill="white"/>
</clipPath>
</defs>
</svg>
